<svg xmlns="http://www.w3.org/2000/svg" xmlns:xlink="http://www.w3.org/1999/xlink" viewBox="0 0 66 65" fill="#fff" fill-rule="evenodd" stroke="#000" stroke-linecap="round" stroke-linejoin="round"><use xlink:href="#A" x=".5" y=".5"/><symbol id="A" overflow="visible"><g stroke="#000" fill="#fff" fill-rule="nonzero"><path d="M19.311 38.691l10.8 4.755zm-.924 10.453l-.426 4.815a25.93 25.93 0 0 0 13.336 4.101l-.274-3.348zm1.055-11.923l10.528 4.64-.726-8.87h1.378v-2.967H29.6v-6.063h1.022v-1.74l-5.678-5.556v-.4c-.001-.295-.24-.534-.536-.534s-.535.24-.536.534v.4l-5.678 5.556v1.74h1.022v6.054h-1.022v2.976h1.613zm1.418-13.26h7.096v6.054h-1.684v-2.586c0-.666-.355-1.28-.932-1.614a1.86 1.86 0 0 0-1.864 0c-.577.333-.932.948-.932 1.614v2.586H20.86zm-2.035 20.226l11.758 5.182-.176-2.158-11.405-5.025zm-.13 1.484l-.177 2 12.374 5.453-.176-2.157zm11.406-2.215l-10.8-4.755-.177 2.002 11.143 4.9zm26.057-24.42l4.425-1.422-.058-.122a32.1 32.1 0 0 0-3.415-5.307l-4.15 2.148c1.227 1.453 2.299 3.029 3.2 4.703z"/><path d="M54.837 19.348l.05.097 1.27-.408c-.9-1.674-1.973-3.25-3.2-4.703l-1.2.62a26.22 26.22 0 0 1 3.078 4.393zm4.514 10.963l4.6.33c-.065-1.581-.247-3.156-.546-4.71l-4.652.16a27.37 27.37 0 0 1 .587 4.221z"/><path d="M57.433 26.135c.307 1.342.508 2.707.6 4.08l1.32.095a27.37 27.37 0 0 0-.587-4.221zM32.007 59.384c-.203 0-.404-.01-.606-.015l.176 2.15-13.895-4.415.148-1.67a27.4 27.4 0 0 1 1.501-47.742 27.4 27.4 0 0 1 27.636 1.343l3.23-3.36c-11.536-7.976-26.92-7.5-37.953 1.15S-2.893 30.321 2.107 43.421s17.97 21.4 31.964 20.497a32 32 0 0 0 29.033-24.47l-4.363-1.514c-2.779 12.532-13.894 21.457-26.734 21.45z"/><path d="M32.007 58.088c-.24 0-.475-.012-.712-.018l.106 1.3.606.015c12.84-.003 23.954-8.918 26.744-21.45l-1.234-.428c-2.613 12-13.228 20.565-25.5 20.582zM5.904 31.985A26.1 26.1 0 0 1 19.457 9.091c8.364-4.58 18.558-4.235 26.6.904l.922-.96A27.4 27.4 0 0 0 4.621 31.126 27.4 27.4 0 0 0 17.83 55.435l.13-1.467A26.1 26.1 0 0 1 5.904 31.985z"/><path d="M17.682 57.105l13.895 4.416-.176-2.15a27.26 27.26 0 0 1-13.572-3.934z"/><path d="M17.83 55.435a27.26 27.26 0 0 0 13.572 3.934l-.106-1.3a25.93 25.93 0 0 1-13.336-4.101zm35.127-41.1l4.15-2.148-.555-.703a32.16 32.16 0 0 0-5.475-5.178l-.88-.63-3.23 3.36c2.244 1.466 4.262 3.25 6 5.3z"/><path d="M30.891 25.754l22.067-11.42a27.33 27.33 0 0 0-6-5.3l-.922.96z"/><path d="M51.757 14.955l1.2-.62zm12.204 15.686l-4.6-.33.056 1.674a27.45 27.45 0 0 1-.655 5.95l4.363 1.514.05-.2c.554-2.382.834-4.819.832-7.264l-.006-.253-.04-1.1z"/><path d="M59.351 30.311l-28.46-2.043 27.86 9.666c.434-1.954.654-3.949.655-5.95l-.056-1.674zm-.587-4.222l4.652-.16-.288-1.377a31.76 31.76 0 0 0-2.546-6.939l-4.425 1.422a27.21 27.21 0 0 1 2.607 7.052z"/><path d="M31.302 27.024l27.462-.935a27.21 27.21 0 0 0-2.607-7.052l-1.27.408z"/></g></symbol></svg>