<svg t="1585821274528" class="icon" viewBox="0 0 1024 1024" version="1.1" xmlns="http://www.w3.org/2000/svg" p-id="25430" width="28" height="28"><path d="M869.5 687.1V188.6c0-68.9-55.9-124.8-124.8-124.8H277.9c-68.9 0-124.8 55.9-124.8 124.8v498.5h716.4zM153.1 762v70.9c0 68.9 55.9 124.8 124.8 124.8h466.9c68.9 0 124.8-55.9 124.8-124.8V762H153.1z m358.2 176.7c-39.1 0-70.8-31.7-70.8-70.8 0-39.1 31.7-70.8 70.8-70.8s70.8 31.7 70.8 70.8c0.1 39.1-31.6 70.8-70.8 70.8z" p-id="25431" fill="#769a63"></path></svg>