<svg t="1585819766738" class="icon" viewBox="0 0 1024 1024" version="1.1" xmlns="http://www.w3.org/2000/svg" p-id="1250" width="28" height="28"><path d="M514.25 75.31c-238.26 0-431.43 164.76-431.43 368.04 0 106.72 53.47 202.92 138.78 270.3 22.26 17.58 32.98 45.96 26.65 73.61l-17.19 75.03c-7.47 32.62 27.76 58.33 56.54 41.25l142.01-84.23c12.56-7.45 27.1-11.26 41.65-10a502.27 502.27 0 0 0 42.99 1.82c238.26 0 431.43-164.76 431.43-367.77 0-203.29-193.17-368.05-431.43-368.05z" fill="#F7B52C" p-id="1251"></path><path d="M337.1 308.01c-42.28 0-76.55 34.27-76.55 76.55s34.27 76.55 76.55 76.55 76.55-34.27 76.55-76.55-34.27-76.55-76.55-76.55zM712.07 308.01c-42.28 0-76.55 34.27-76.55 76.55s34.27 76.55 76.55 76.55 76.55-34.27 76.55-76.55-34.27-76.55-76.55-76.55z" fill="#FFFFFF" p-id="1252"></path></svg>